<?xml version="1.0" encoding="UTF-8"?> <svg xmlns="http://www.w3.org/2000/svg" width="187" height="45" viewBox="0 0 187 45" fill="none"> <path d="M180.786 13.474L176.585 23.6729C176.585 23.8146 176.44 23.9563 176.44 24.0979L176.295 24.3812L176.15 24.0979C176.15 23.9563 176.005 23.8146 176.005 23.6729L171.804 13.474H166.299L173.542 31.0389L170.5 37.6965H176.005L186.146 13.474H180.786V13.474Z" fill="black"></path> <path d="M140.222 14.466C139.208 13.7577 138.049 13.3328 136.6 13.1911C134.137 12.9078 131.819 13.7577 130.37 15.4576V13.4744H125.445V31.0393H130.37V21.8319C130.37 19.7071 130.805 19.2822 131.095 18.7156C131.674 17.724 132.833 17.1574 134.137 17.299C135.441 17.299 136.745 17.8657 137.324 18.8572C137.759 19.5655 137.759 20.4154 137.759 20.982C137.759 22.5402 137.759 31.0393 137.759 31.0393H142.685V20.4154C142.685 17.5824 141.815 15.7409 140.222 14.466Z" fill="black"></path> <path d="M116.028 13.6157C113.566 12.7658 110.958 12.9074 108.495 14.0407C106.757 14.7489 105.453 16.0238 104.439 17.582C103.569 18.9985 103.135 20.5567 103.135 22.3981C103.135 24.2396 103.569 25.7978 104.439 27.2143C105.308 28.6308 106.467 29.6224 107.916 30.4723C109.364 31.1806 111.103 31.6055 112.696 31.6055C113.566 31.6055 114.435 31.4639 115.304 31.3222C116.028 31.1806 116.753 30.8973 117.477 30.4723C118.926 29.6224 120.085 28.6308 120.954 27.356C121.823 25.9394 122.258 24.3813 122.258 22.5398C122.113 18.2902 119.795 15.0322 116.028 13.6157ZM117.332 22.3981C117.332 23.9563 116.753 25.2312 115.739 26.0811C115.014 26.7893 114 27.0727 112.551 27.0727C111.248 27.0727 110.233 26.6477 109.364 26.0811C108.35 25.2312 107.916 23.9563 107.771 22.3981C107.771 20.6983 108.35 19.1401 109.654 18.1486C110.378 17.582 111.248 17.2987 112.407 17.2987C113.566 17.2987 114.435 17.582 115.159 18.1486C116.753 19.1401 117.477 20.6983 117.332 22.3981Z" fill="black"></path> <path d="M97.4847 14.4651C96.6155 13.7568 95.3116 13.3319 93.8629 13.1902C93.5731 13.1902 93.2834 13.1902 92.9937 13.1902C90.9654 13.1902 89.3719 14.0401 87.9231 15.74L87.6334 16.0233H87.0539C86.6193 15.4567 86.1847 14.89 85.6052 14.6067C84.7359 13.7568 83.577 13.3319 82.1282 13.1902C79.8103 12.9069 77.927 13.6152 76.3334 15.315V13.4735H71.4077V31.0384H76.3334V21.831V21.6893C76.3334 19.7062 76.6231 19.2813 76.9129 18.7147C77.4923 17.7231 78.6513 17.1565 79.8103 17.1565C80.9693 17.1565 82.1283 17.7231 82.7077 18.7147C83.1424 19.4229 83.1424 20.2728 83.1424 21.1227V30.8967H88.2129V21.5477C88.2129 19.8479 88.5026 19.1396 88.7924 18.573C89.3718 17.5814 90.5308 17.1565 91.6898 17.1565C92.8488 17.1565 93.8629 17.8647 94.4424 18.7147C94.7321 19.2813 94.877 19.9895 94.877 20.5561C94.877 20.8394 94.877 20.9811 94.877 21.2644V31.0384H99.8026V20.4145C99.8026 19.4229 99.6578 18.573 99.5129 17.7231C99.2232 16.3066 98.4988 15.1734 97.4847 14.4651Z" fill="black"></path> <path d="M161.373 25.6561C160.649 26.3644 158.91 27.6393 156.592 27.7809C154.709 27.7809 153.115 27.356 152.101 26.2227C151.667 25.6561 151.232 25.0895 151.087 24.3813H164.85V24.2396C164.995 23.5314 164.995 22.8231 164.995 22.2565C164.995 21.6899 164.85 20.84 164.56 19.7068C163.981 17.7236 162.822 16.1655 161.228 14.8906C159.49 13.6157 157.751 13.1908 157.317 13.1908C153.695 12.6242 149.638 14.1823 147.61 17.4403C146.161 19.7068 146.161 21.9732 146.306 22.6814C146.306 23.5314 146.451 26.2227 148.624 28.4892C151.087 31.1806 154.709 31.3222 155.868 31.4639C160.794 31.6055 164.126 28.6308 164.85 27.9226L161.373 25.6561ZM152.826 18.2902C153.55 17.7236 154.419 17.4403 155.578 17.4403C156.737 17.4403 157.606 17.7236 158.331 18.2902C159.055 18.8568 159.635 19.5651 159.924 20.5567H151.087C151.522 19.5651 152.101 18.8568 152.826 18.2902Z" fill="black"></path> <path d="M37.2184 2C26.0633 2 17.2261 10.7824 17.2261 21.548C17.2261 32.3135 26.2081 41.096 37.2184 41.096C48.2287 41.096 57.2107 32.3135 57.2107 21.548C57.3556 10.7824 48.2287 2 37.2184 2ZM37.2184 28.7722C33.162 28.7722 29.6851 25.5142 29.6851 21.548C29.6851 17.5817 33.0171 14.3237 37.2184 14.3237C41.4197 14.3237 44.7518 17.5817 44.7518 21.548C44.6069 25.5142 41.4197 28.7722 37.2184 28.7722Z" fill="#8B3FFD"></path> <path d="M17.2257 7.80786V36.2799H10.1269L1 7.80786H17.2257Z" fill="#8B3FFD"></path> </svg> 